<svg width="14" height="9" viewBox="0 0 14 9" fill="none" xmlns="http://www.w3.org/2000/svg">
<path fill-rule="evenodd" clip-rule="evenodd" d="M12.9527 1L12.5441 1.48388L7.58149 7.3608L7.00846 8.03941L6.43543 7.3608L1.47285 1.48388L1.06425 1H3.0275L7.00846 5.71444L10.9894 1H12.9527Z" fill="#313131"/>
<path d="M12.9527 1L13.1437 1.16129L13.491 0.75L12.9527 0.75V1ZM12.5441 1.48388L12.3531 1.32258L12.3531 1.32258L12.5441 1.48388ZM7.58149 7.3608L7.7725 7.52209L7.7725 7.52209L7.58149 7.3608ZM7.00846 8.03941L6.81745 8.2007L7.00846 8.42691L7.19947 8.2007L7.00846 8.03941ZM6.43543 7.3608L6.62644 7.19951L6.62644 7.19951L6.43543 7.3608ZM1.47285 1.48388L1.66386 1.32258L1.66386 1.32258L1.47285 1.48388ZM1.06425 1V0.75H0.525942L0.873245 1.16129L1.06425 1ZM3.0275 1L3.21851 0.838708L3.14361 0.75H3.0275V1ZM7.00846 5.71444L6.81745 5.87573L7.00846 6.10193L7.19947 5.87573L7.00846 5.71444ZM10.9894 1V0.75H10.8733L10.7984 0.838708L10.9894 1ZM12.7617 0.838708L12.3531 1.32258L12.7351 1.64517L13.1437 1.16129L12.7617 0.838708ZM12.3531 1.32258L7.39048 7.19951L7.7725 7.52209L12.7351 1.64517L12.3531 1.32258ZM7.39048 7.19951L6.81745 7.87812L7.19947 8.2007L7.7725 7.52209L7.39048 7.19951ZM7.19947 7.87812L6.62644 7.19951L6.24442 7.52209L6.81745 8.2007L7.19947 7.87812ZM6.62644 7.19951L1.66386 1.32258L1.28184 1.64517L6.24442 7.52209L6.62644 7.19951ZM1.66386 1.32258L1.25526 0.838708L0.873245 1.16129L1.28184 1.64517L1.66386 1.32258ZM1.06425 1.25H3.0275V0.75H1.06425V1.25ZM2.83649 1.16129L6.81745 5.87573L7.19947 5.55315L3.21851 0.838708L2.83649 1.16129ZM7.19947 5.87573L11.1804 1.16129L10.7984 0.838708L6.81745 5.55315L7.19947 5.87573ZM10.9894 1.25H12.9527V0.75H10.9894V1.25Z" fill="#313131"/>
</svg>
