<svg width="21" height="27" viewBox="0 0 21 27" fill="none" xmlns="http://www.w3.org/2000/svg">
<path d="M10.636 23.22C11.536 23.22 12.292 23.112 12.904 22.896C13.516 22.68 14.002 22.392 14.362 22.032C14.734 21.672 14.998 21.252 15.154 20.772C15.322 20.292 15.406 19.782 15.406 19.242C15.406 18.678 15.316 18.174 15.136 17.73C14.956 17.274 14.674 16.89 14.29 16.578C13.906 16.254 13.408 16.008 12.796 15.84C12.196 15.672 11.47 15.588 10.618 15.588H5.74V23.22H10.636ZM5.74 4.716V12.24H9.592C11.248 12.24 12.496 11.94 13.336 11.34C14.188 10.74 14.614 9.786 14.614 8.478C14.614 7.122 14.23 6.156 13.462 5.58C12.694 5.004 11.494 4.716 9.862 4.716H5.74ZM9.862 0.971998C11.566 0.971998 13.024 1.134 14.236 1.458C15.448 1.782 16.438 2.244 17.206 2.844C17.986 3.444 18.556 4.17 18.916 5.022C19.276 5.874 19.456 6.834 19.456 7.902C19.456 8.514 19.366 9.102 19.186 9.666C19.006 10.218 18.724 10.74 18.34 11.232C17.968 11.712 17.488 12.15 16.9 12.546C16.324 12.942 15.634 13.278 14.83 13.554C18.406 14.358 20.194 16.29 20.194 19.35C20.194 20.454 19.984 21.474 19.564 22.41C19.144 23.346 18.532 24.156 17.728 24.84C16.924 25.512 15.934 26.04 14.758 26.424C13.582 26.808 12.238 27 10.726 27H0.898V0.971998H9.862Z" fill="#313131"/>
</svg>
