<svg width="29" height="24" viewBox="0 0 29 24" fill="none" xmlns="http://www.w3.org/2000/svg">
<circle cx="12" cy="22" r="2" fill="#F8F8F8"/>
<circle cx="21" cy="22" r="2" fill="#F8F8F8"/>
<path d="M25.0114 20.9207C25.5636 20.9144 26.0062 20.4617 25.9999 19.9094C25.9937 19.3572 25.5409 18.9146 24.9886 18.9209L25.0114 20.9207ZM7 17.9604L6 17.9604L6 17.9604L7 17.9604ZM25 19.9208C24.9886 18.9209 24.9886 18.9209 24.9885 18.9209C24.9883 18.9209 24.9882 18.9209 24.9879 18.9209C24.9875 18.9209 24.9868 18.9209 24.9858 18.9209C24.9839 18.9209 24.9811 18.9209 24.9774 18.921C24.9699 18.9211 24.9587 18.9212 24.9439 18.9214C24.9143 18.9217 24.8703 18.9222 24.813 18.9228C24.6982 18.9241 24.5298 18.9259 24.3152 18.9282C23.8859 18.9327 23.2717 18.9389 22.5325 18.9459C21.0538 18.9598 19.0752 18.9765 17.0744 18.9876C15.0729 18.9988 13.0523 19.0043 11.4885 18.996C10.7058 18.9918 10.0426 18.9842 9.55507 18.9723C9.31055 18.9663 9.117 18.9594 8.97756 18.9517C8.79558 18.9417 8.7952 18.934 8.8603 18.9501L8.37978 20.8915C8.53488 20.9299 8.74122 20.9417 8.86773 20.9487C9.03678 20.958 9.2535 20.9655 9.50608 20.9717C10.0128 20.9841 10.6911 20.9918 11.4778 20.996C13.0527 21.0043 15.0821 20.9988 17.0856 20.9876C19.0898 20.9765 21.0712 20.9597 22.5513 20.9458C23.2914 20.9388 23.9063 20.9326 24.3362 20.928C24.5512 20.9258 24.7199 20.9239 24.8349 20.9227C24.8924 20.9221 24.9365 20.9216 24.9662 20.9212C24.9811 20.9211 24.9924 20.9209 24.9999 20.9209C25.0037 20.9208 25.0066 20.9208 25.0085 20.9208C25.0094 20.9207 25.0102 20.9207 25.0106 20.9207C25.0109 20.9207 25.0111 20.9207 25.0112 20.9207C25.0113 20.9207 25.0114 20.9207 25 19.9208ZM8.8603 18.9501C8.65685 18.8997 8.42497 18.7813 8.25686 18.6084C8.10502 18.4523 8 18.2506 8 17.9604L6 17.9604C6 19.7411 7.40198 20.6495 8.37978 20.8915L8.8603 18.9501ZM8 17.9604C8 17.5271 8.12313 17.2873 8.22495 17.171C8.32054 17.0618 8.44746 17 8.62 17V15C7.89255 15 7.20946 15.2946 6.72005 15.8537C6.23687 16.4057 6 17.1461 6 17.9604L8 17.9604ZM8.62 17H16.5V15H8.62V17Z" fill="#F8F8F8"/>
<circle cx="23" cy="13" r="5" fill="#F8F8F8"/>
<line x1="23" y1="10" x2="23" y2="16" stroke="#81B214" stroke-width="2" stroke-linecap="round"/>
<line x1="20" y1="13" x2="26" y2="13" stroke="#81B214" stroke-width="2" stroke-linecap="round"/>
<path d="M6.73256 4.24742H27C27.5523 4.24742 28 4.69514 28 5.24742V8.05882C23 2.5 12.5 7.5 16.5 16H12.5M6.73256 4.24742L6.46221 2.85567V2.85567C6.19779 1.7667 5.22265 1 4.10204 1H0M6.73256 4.24742L8.89535 15.8454" stroke="#F8F8F8" stroke-width="2"/>
</svg>
