<svg width="29" height="29" viewBox="0 0 29 29" fill="none" xmlns="http://www.w3.org/2000/svg">
<path d="M20.2705 0.463136C19.4535 0.685277 18.672 1.04923 17.9882 1.51091C17.704 1.70637 16.2119 3.13607 14.6758 4.67249L11.8784 7.47882H12.9442C14.0453 7.47882 14.8359 7.60323 15.8126 7.9318L16.381 8.11827L18.2193 6.28895C20.4395 4.08669 20.626 3.97127 21.958 3.97127C22.7128 3.97127 22.8549 3.99795 23.3166 4.22879C23.9204 4.53967 24.4267 5.05471 24.773 5.72084C24.9859 6.13815 25.0128 6.28924 25.0215 7.03512C25.0215 8.42944 25.0395 8.40276 21.3893 12.0794C19.6754 13.8023 18.0769 15.3474 17.8281 15.5162C16.6202 16.3508 14.942 16.2087 13.9029 15.1876C13.5744 14.868 13.4679 14.8147 13.0503 14.7793C12.4199 14.7259 12.2334 14.8326 11.221 15.8537L10.3864 16.6973L10.715 17.1503C11.9315 18.8022 14.3205 19.8589 16.4874 19.7081C17.8284 19.6104 19.0008 19.2018 20.0309 18.4559C20.7057 17.9675 27.153 11.5023 27.5439 10.9162C27.9792 10.2767 28.3345 9.46851 28.5384 8.63389C28.8139 7.55944 28.7515 5.97865 28.3963 4.92189C27.6947 2.83505 26.1583 1.30762 24.0448 0.588125C23.0591 0.249986 21.2741 0.196626 20.2705 0.463136Z" fill="#313131"/>
<path d="M11.772 9.3525C11.0705 9.46792 10.0935 9.83216 9.39197 10.2495C8.89462 10.5427 8.09538 11.2885 5.32471 14.0415C3.42405 15.9242 1.71015 17.7002 1.51498 17.9933C1.00864 18.7215 0.600321 19.6539 0.422551 20.4798C0.191711 21.5099 0.271461 23.082 0.591331 24.041C1.31053 26.1545 2.83825 27.6909 4.92509 28.3925C5.98185 28.7477 7.56265 28.8098 8.6371 28.5346C9.55176 28.3037 10.351 27.9398 11.0705 27.4244C11.3724 27.2023 12.8467 25.7906 14.3652 24.2718L17.1182 21.5102H16.0524C14.9513 21.5102 14.161 21.3858 13.184 21.0572L12.6156 20.8707L10.7863 22.6824C8.54836 24.8936 8.3529 25.018 7.03861 25.018C6.34609 25.009 6.12395 24.9736 5.7687 24.8049C5.14694 24.503 4.53417 23.9079 4.24127 23.3128C4.00144 22.8511 3.97476 22.709 3.97476 21.9542C3.97476 20.5332 3.94808 20.5778 7.59802 16.9099C9.32092 15.187 10.9284 13.6419 11.1679 13.4731C12.3758 12.6382 14.0543 12.7803 15.0934 13.8017C15.4219 14.1213 15.5284 14.1746 15.946 14.21C16.5764 14.2634 16.7629 14.1566 17.7753 13.1266L18.6102 12.283L18.2463 11.7946C17.5534 10.8799 16.2038 9.96527 14.9869 9.58334C13.9743 9.26376 12.8021 9.18372 11.772 9.3525Z" fill="#313131"/>
</svg>
