<svg width="58" height="59" viewBox="0 0 58 59" fill="none" xmlns="http://www.w3.org/2000/svg">
<path d="M57.7068 30.1784C57.7068 28.1732 57.5445 26.1571 57.1984 24.1843H29.4347V35.5439H45.3337C44.6739 39.2075 42.5541 42.4485 39.45 44.5079V51.8786H48.9353C54.5053 46.7408 57.7068 39.1533 57.7068 30.1784Z" fill="#4285F4"/>
<path d="M29.4347 59C37.3734 59 44.0683 56.3878 48.9461 51.8786L39.4608 44.508C36.8218 46.3073 33.4149 47.3262 29.4455 47.3262C21.7664 47.3262 15.2554 42.1342 12.9193 35.1537H3.13112V42.752C8.12794 52.7133 18.3054 59 29.4347 59Z" fill="#34A853"/>
<path d="M12.9084 35.1537C11.6755 31.49 11.6755 27.5228 12.9084 23.8592V16.2609H3.13112C-1.04371 24.5962 -1.04371 34.4166 3.13112 42.752L12.9084 35.1537Z" fill="#FBBC04"/>
<path d="M29.4347 11.6759C33.6312 11.6108 37.687 13.1934 40.7262 16.0983L49.13 7.67618C43.8087 2.66844 36.7461 -0.0847261 29.4347 0.0019879C18.3054 0.0019879 8.12794 6.28875 3.13112 16.2609L12.9084 23.8592C15.2338 16.8679 21.7556 11.6759 29.4347 11.6759Z" fill="#EA4335"/>
</svg>
