<svg width="104" height="160" viewBox="0 0 104 160" fill="none" xmlns="http://www.w3.org/2000/svg">
<path d="M65.6 2.59998L95.5 33.5" stroke="#454545" stroke-width="3" stroke-linecap="round"/>
<line x1="64.5" y1="3.5" x2="64.5" y2="34.5" stroke="#454545" stroke-width="3" stroke-linecap="round"/>
<line x1="64.5" y1="34.5" x2="94.5" y2="34.5" stroke="#454545" stroke-width="3" stroke-linecap="round"/>
<path d="M95.5 134.5H2.5" stroke="#454545" stroke-width="3" stroke-linecap="round"/>
<line x1="2.5" y1="2.5" x2="65.5" y2="2.5" stroke="#454545" stroke-width="3" stroke-linecap="round"/>
<path d="M6.21 151.896C5.472 151.92 4.842 151.98 4.32 152.076C3.804 152.166 3.381 152.286 3.051 152.436C2.727 152.586 2.49 152.763 2.34 152.967C2.196 153.171 2.124 153.399 2.124 153.651C2.124 153.891 2.163 154.098 2.241 154.272C2.319 154.446 2.424 154.59 2.556 154.704C2.694 154.812 2.853 154.893 3.033 154.947C3.219 154.995 3.417 155.019 3.627 155.019C3.909 155.019 4.167 154.992 4.401 154.938C4.635 154.878 4.854 154.794 5.058 154.686C5.268 154.578 5.466 154.449 5.652 154.299C5.844 154.149 6.03 153.978 6.21 153.786V151.896ZM1.035 148.17C1.539 147.684 2.082 147.321 2.664 147.081C3.246 146.841 3.891 146.721 4.599 146.721C5.109 146.721 5.562 146.805 5.958 146.973C6.354 147.141 6.687 147.375 6.957 147.675C7.227 147.975 7.431 148.338 7.569 148.764C7.707 149.19 7.776 149.658 7.776 150.168V156H7.065C6.909 156 6.789 155.976 6.705 155.928C6.621 155.874 6.555 155.772 6.507 155.622L6.327 154.758C6.087 154.98 5.853 155.178 5.625 155.352C5.397 155.52 5.157 155.664 4.905 155.784C4.653 155.898 4.383 155.985 4.095 156.045C3.813 156.111 3.498 156.144 3.15 156.144C2.796 156.144 2.463 156.096 2.151 156C1.839 155.898 1.566 155.748 1.332 155.55C1.104 155.352 0.921 155.103 0.783 154.803C0.651 154.497 0.585 154.137 0.585 153.723C0.585 153.363 0.684 153.018 0.882 152.688C1.08 152.352 1.401 152.055 1.845 151.797C2.289 151.539 2.868 151.329 3.582 151.167C4.296 150.999 5.172 150.903 6.21 150.879V150.168C6.21 149.46 6.057 148.926 5.751 148.566C5.445 148.2 4.998 148.017 4.41 148.017C4.014 148.017 3.681 148.068 3.411 148.17C3.147 148.266 2.916 148.377 2.718 148.503C2.526 148.623 2.358 148.734 2.214 148.836C2.076 148.932 1.938 148.98 1.8 148.98C1.692 148.98 1.599 148.953 1.521 148.899C1.443 148.839 1.377 148.767 1.323 148.683L1.035 148.17ZM11.8723 142.743V156H10.2703V142.743H11.8723ZM16.0812 153.804C16.3752 154.2 16.6962 154.479 17.0442 154.641C17.3982 154.803 17.7852 154.884 18.2052 154.884C19.0632 154.884 19.7202 154.581 20.1762 153.975C20.6322 153.369 20.8602 152.466 20.8602 151.266C20.8602 150.15 20.6562 149.331 20.2482 148.809C19.8462 148.281 19.2702 148.017 18.5202 148.017C17.9982 148.017 17.5422 148.137 17.1522 148.377C16.7682 148.617 16.4112 148.956 16.0812 149.394V153.804ZM16.0812 148.197C16.4652 147.753 16.8972 147.399 17.3772 147.135C17.8632 146.871 18.4212 146.739 19.0512 146.739C19.5852 146.739 20.0652 146.841 20.4912 147.045C20.9232 147.249 21.2892 147.546 21.5892 147.936C21.8892 148.32 22.1172 148.788 22.2732 149.34C22.4352 149.892 22.5162 150.513 22.5162 151.203C22.5162 151.941 22.4262 152.613 22.2462 153.219C22.0662 153.825 21.8052 154.344 21.4632 154.776C21.1272 155.202 20.7162 155.535 20.2302 155.775C19.7442 156.009 19.1982 156.126 18.5922 156.126C17.9922 156.126 17.4852 156.015 17.0712 155.793C16.6632 155.565 16.3062 155.244 16.0002 154.83L15.9192 155.658C15.8712 155.886 15.7332 156 15.5052 156H14.4702V142.743H16.0812V148.197ZM28.3854 146.739C29.0514 146.739 29.6514 146.85 30.1854 147.072C30.7194 147.294 31.1754 147.609 31.5534 148.017C31.9314 148.425 32.2194 148.92 32.4174 149.502C32.6214 150.078 32.7234 150.723 32.7234 151.437C32.7234 152.157 32.6214 152.805 32.4174 153.381C32.2194 153.957 31.9314 154.449 31.5534 154.857C31.1754 155.265 30.7194 155.58 30.1854 155.802C29.6514 156.018 29.0514 156.126 28.3854 156.126C27.7134 156.126 27.1074 156.018 26.5674 155.802C26.0334 155.58 25.5774 155.265 25.1994 154.857C24.8214 154.449 24.5304 153.957 24.3264 153.381C24.1284 152.805 24.0294 152.157 24.0294 151.437C24.0294 150.723 24.1284 150.078 24.3264 149.502C24.5304 148.92 24.8214 148.425 25.1994 148.017C25.5774 147.609 26.0334 147.294 26.5674 147.072C27.1074 146.85 27.7134 146.739 28.3854 146.739ZM28.3854 154.875C29.2854 154.875 29.9574 154.575 30.4014 153.975C30.8454 153.369 31.0674 152.526 31.0674 151.446C31.0674 150.36 30.8454 149.514 30.4014 148.908C29.9574 148.302 29.2854 147.999 28.3854 147.999C27.9294 147.999 27.5304 148.077 27.1884 148.233C26.8524 148.389 26.5704 148.614 26.3424 148.908C26.1204 149.202 25.9524 149.565 25.8384 149.997C25.7304 150.423 25.6764 150.906 25.6764 151.446C25.6764 152.526 25.8984 153.369 26.3424 153.975C26.7924 154.575 27.4734 154.875 28.3854 154.875Z" fill="#454545"/>
<path d="M51.9338 146.883L48.9818 156H47.7128C47.5568 156 47.4488 155.898 47.3888 155.694L45.3728 149.511C45.3248 149.373 45.2858 149.235 45.2558 149.097C45.2258 148.953 45.1958 148.812 45.1658 148.674C45.1358 148.812 45.1058 148.953 45.0758 149.097C45.0458 149.235 45.0068 149.376 44.9588 149.52L42.9068 155.694C42.8528 155.898 42.7328 156 42.5468 156H41.3408L38.3888 146.883H39.6488C39.7748 146.883 39.8798 146.916 39.9638 146.982C40.0538 147.048 40.1138 147.126 40.1438 147.216L41.8898 153.084C41.9918 153.516 42.0728 153.924 42.1328 154.308C42.1868 154.11 42.2408 153.909 42.2948 153.705C42.3548 153.501 42.4178 153.294 42.4838 153.084L44.4098 147.18C44.4398 147.09 44.4908 147.015 44.5628 146.955C44.6408 146.895 44.7338 146.865 44.8418 146.865H45.5438C45.6638 146.865 45.7628 146.895 45.8408 146.955C45.9188 147.015 45.9728 147.09 46.0028 147.18L47.8838 153.084C47.9498 153.294 48.0098 153.501 48.0638 153.705C48.1178 153.909 48.1688 154.11 48.2168 154.308C48.2468 154.11 48.2828 153.912 48.3248 153.714C48.3728 153.51 48.4238 153.3 48.4778 153.084L50.2598 147.216C50.2898 147.12 50.3468 147.042 50.4308 146.982C50.5148 146.916 50.6138 146.883 50.7278 146.883H51.9338ZM61.3596 146.883L56.2746 158.691C56.2206 158.811 56.1516 158.907 56.0676 158.979C55.9896 159.051 55.8666 159.087 55.6986 159.087H54.5106L56.1756 155.469L52.4136 146.883H53.7996C53.9376 146.883 54.0456 146.919 54.1236 146.991C54.2076 147.057 54.2646 147.132 54.2946 147.216L56.7336 152.958C56.8296 153.21 56.9106 153.474 56.9766 153.75C57.0606 153.468 57.1506 153.201 57.2466 152.949L59.6136 147.216C59.6496 147.12 59.7096 147.042 59.7936 146.982C59.8836 146.916 59.9826 146.883 60.0906 146.883H61.3596ZM64.3859 153.804C64.6799 154.2 65.0009 154.479 65.3489 154.641C65.7029 154.803 66.0899 154.884 66.5099 154.884C67.3679 154.884 68.0249 154.581 68.4809 153.975C68.9369 153.369 69.1649 152.466 69.1649 151.266C69.1649 150.15 68.9609 149.331 68.5529 148.809C68.1509 148.281 67.5749 148.017 66.8249 148.017C66.3029 148.017 65.8469 148.137 65.4569 148.377C65.0729 148.617 64.7159 148.956 64.3859 149.394V153.804ZM64.3859 148.197C64.7699 147.753 65.2019 147.399 65.6819 147.135C66.1679 146.871 66.7259 146.739 67.3559 146.739C67.8899 146.739 68.3699 146.841 68.7959 147.045C69.2279 147.249 69.5939 147.546 69.8939 147.936C70.1939 148.32 70.4219 148.788 70.5779 149.34C70.7399 149.892 70.8209 150.513 70.8209 151.203C70.8209 151.941 70.7309 152.613 70.5509 153.219C70.3709 153.825 70.1099 154.344 69.7679 154.776C69.4319 155.202 69.0209 155.535 68.5349 155.775C68.0489 156.009 67.5029 156.126 66.8969 156.126C66.2969 156.126 65.7899 156.015 65.3759 155.793C64.9679 155.565 64.6109 155.244 64.3049 154.83L64.2239 155.658C64.1759 155.886 64.0379 156 63.8099 156H62.7749V142.743H64.3859V148.197ZM74.5391 146.883V156H72.9371V146.883H74.5391ZM74.8811 144.021C74.8811 144.177 74.8481 144.324 74.7821 144.462C74.7221 144.594 74.6381 144.714 74.5301 144.822C74.4281 144.924 74.3051 145.005 74.1611 145.065C74.0231 145.125 73.8761 145.155 73.7201 145.155C73.5641 145.155 73.4171 145.125 73.2791 145.065C73.1471 145.005 73.0301 144.924 72.9281 144.822C72.8261 144.714 72.7451 144.594 72.6851 144.462C72.6251 144.324 72.5951 144.177 72.5951 144.021C72.5951 143.865 72.6251 143.718 72.6851 143.58C72.7451 143.436 72.8261 143.313 72.9281 143.211C73.0301 143.103 73.1471 143.019 73.2791 142.959C73.4171 142.899 73.5641 142.869 73.7201 142.869C73.8761 142.869 74.0231 142.899 74.1611 142.959C74.3051 143.019 74.4281 143.103 74.5301 143.211C74.6381 143.313 74.7221 143.436 74.7821 143.58C74.8481 143.718 74.8811 143.865 74.8811 144.021ZM83.2733 150.447C83.2733 150.075 83.2193 149.736 83.1113 149.43C83.0093 149.118 82.8563 148.851 82.6523 148.629C82.4543 148.401 82.2113 148.227 81.9233 148.107C81.6353 147.981 81.3083 147.918 80.9423 147.918C80.1743 147.918 79.5653 148.143 79.1153 148.593C78.6713 149.037 78.3953 149.655 78.2873 150.447H83.2733ZM84.5693 154.722C84.3713 154.962 84.1343 155.172 83.8583 155.352C83.5823 155.526 83.2853 155.67 82.9673 155.784C82.6553 155.898 82.3313 155.982 81.9953 156.036C81.6593 156.096 81.3263 156.126 80.9963 156.126C80.3663 156.126 79.7843 156.021 79.2503 155.811C78.7223 155.595 78.2633 155.283 77.8733 154.875C77.4893 154.461 77.1893 153.951 76.9733 153.345C76.7573 152.739 76.6493 152.043 76.6493 151.257C76.6493 150.621 76.7453 150.027 76.9373 149.475C77.1353 148.923 77.4173 148.446 77.7833 148.044C78.1493 147.636 78.5963 147.318 79.1243 147.09C79.6523 146.856 80.2463 146.739 80.9063 146.739C81.4523 146.739 81.9563 146.832 82.4183 147.018C82.8863 147.198 83.2883 147.462 83.6243 147.81C83.9663 148.152 84.2333 148.578 84.4253 149.088C84.6173 149.592 84.7133 150.168 84.7133 150.816C84.7133 151.068 84.6863 151.236 84.6323 151.32C84.5783 151.404 84.4763 151.446 84.3263 151.446H78.2333C78.2513 152.022 78.3293 152.523 78.4673 152.949C78.6113 153.375 78.8093 153.732 79.0613 154.02C79.3133 154.302 79.6133 154.515 79.9613 154.659C80.3093 154.797 80.6993 154.866 81.1313 154.866C81.5333 154.866 81.8783 154.821 82.1663 154.731C82.4603 154.635 82.7123 154.533 82.9223 154.425C83.1323 154.317 83.3063 154.218 83.4443 154.128C83.5883 154.032 83.7113 153.984 83.8133 153.984C83.9453 153.984 84.0473 154.035 84.1193 154.137L84.5693 154.722ZM88.2021 148.71C88.4901 148.086 88.8441 147.6 89.2641 147.252C89.6841 146.898 90.1971 146.721 90.8031 146.721C90.9951 146.721 91.1781 146.742 91.3521 146.784C91.5321 146.826 91.6911 146.892 91.8291 146.982L91.7121 148.179C91.6761 148.329 91.5861 148.404 91.4421 148.404C91.3581 148.404 91.2351 148.386 91.0731 148.35C90.9111 148.314 90.7281 148.296 90.5241 148.296C90.2361 148.296 89.9781 148.338 89.7501 148.422C89.5281 148.506 89.3271 148.632 89.1471 148.8C88.9731 148.962 88.8141 149.166 88.6701 149.412C88.5321 149.652 88.4061 149.928 88.2921 150.24V156H86.6811V146.883H87.5991C87.7731 146.883 87.8931 146.916 87.9591 146.982C88.0251 147.048 88.0701 147.162 88.0941 147.324L88.2021 148.71ZM99.5288 147.567C99.5288 147.681 99.5078 147.792 99.4658 147.9C99.4298 148.008 99.3788 148.101 99.3128 148.179L94.3718 154.749H99.3578V156H92.4908V155.334C92.4908 155.256 92.5088 155.166 92.5448 155.064C92.5808 154.956 92.6348 154.854 92.7068 154.758L97.6748 148.143H92.7698V146.883H99.5288V147.567Z" fill="#4267B2"/>
<path fill-rule="evenodd" clip-rule="evenodd" d="M1 134.5C1 135.328 1.67157 136 2.5 136C3.32843 136 4 135.328 4 134.5V89H1V134.5ZM1 64V2.5C1 1.67157 1.67157 1 2.5 1C3.32843 1 4 1.67157 4 2.5V64H1Z" fill="#454545"/>
<path fill-rule="evenodd" clip-rule="evenodd" d="M97 33.5C97 32.6716 96.3284 32 95.5 32C94.6716 32 94 32.6716 94 33.5L94 64H97L97 33.5ZM97 89H94L94 134.5C94 135.328 94.6716 136 95.5 136C96.3284 136 97 135.328 97 134.5L97 89Z" fill="#454545"/>
<path d="M3.36 79.438C3.703 79.9 4.0775 80.2255 4.4835 80.4145C4.8895 80.6035 5.3445 80.698 5.8485 80.698C6.8425 80.698 7.6055 80.3445 8.1375 79.6375C8.6695 78.9305 8.9355 77.9225 8.9355 76.6135C8.9355 75.9205 8.8725 75.3255 8.7465 74.8285C8.6275 74.3315 8.4525 73.9255 8.2215 73.6105C7.9905 73.2885 7.707 73.054 7.371 72.907C7.035 72.76 6.6535 72.6865 6.2265 72.6865C5.6175 72.6865 5.082 72.8265 4.62 73.1065C4.165 73.3865 3.745 73.782 3.36 74.293V79.438ZM3.2655 73.012C3.7135 72.459 4.2315 72.0145 4.8195 71.6785C5.4075 71.3425 6.0795 71.1745 6.8355 71.1745C7.4515 71.1745 8.008 71.2935 8.505 71.5315C9.002 71.7625 9.4255 72.109 9.7755 72.571C10.1255 73.026 10.395 73.593 10.584 74.272C10.773 74.951 10.8675 75.7315 10.8675 76.6135C10.8675 77.3975 10.7625 78.129 10.5525 78.808C10.3425 79.48 10.038 80.0645 9.639 80.5615C9.247 81.0515 8.764 81.44 8.19 81.727C7.623 82.007 6.9825 82.147 6.2685 82.147C5.6175 82.147 5.0575 82.0385 4.5885 81.8215C4.1265 81.5975 3.717 81.2895 3.36 80.8975V85.6015H1.4805V71.3635H2.604C2.87 71.3635 3.0345 71.493 3.0975 71.752L3.2655 73.012ZM15.0265 73.495C15.3625 72.767 15.7755 72.2 16.2655 71.794C16.7555 71.381 17.354 71.1745 18.061 71.1745C18.285 71.1745 18.4985 71.199 18.7015 71.248C18.9115 71.297 19.097 71.374 19.258 71.479L19.1215 72.8755C19.0795 73.0505 18.9745 73.138 18.8065 73.138C18.7085 73.138 18.565 73.117 18.376 73.075C18.187 73.033 17.9735 73.012 17.7355 73.012C17.3995 73.012 17.0985 73.061 16.8325 73.159C16.5735 73.257 16.339 73.404 16.129 73.6C15.926 73.789 15.7405 74.027 15.5725 74.314C15.4115 74.594 15.2645 74.916 15.1315 75.28V82H13.252V71.3635H14.323C14.526 71.3635 14.666 71.402 14.743 71.479C14.82 71.556 14.8725 71.689 14.9005 71.878L15.0265 73.495ZM28.2409 72.1615C28.2409 72.2945 28.2164 72.424 28.1674 72.55C28.1254 72.676 28.0659 72.7845 27.9889 72.8755L22.2244 80.5405H28.0414V82H20.0299V81.223C20.0299 81.132 20.0509 81.027 20.0929 80.908C20.1349 80.782 20.1979 80.663 20.2819 80.551L26.0779 72.8335H20.3554V71.3635H28.2409V72.1615ZM37.3104 75.5215C37.3104 75.0875 37.2474 74.692 37.1214 74.335C37.0024 73.971 36.8239 73.6595 36.5859 73.4005C36.3549 73.1345 36.0714 72.9315 35.7354 72.7915C35.3994 72.6445 35.0179 72.571 34.5909 72.571C33.6949 72.571 32.9844 72.8335 32.4594 73.3585C31.9414 73.8765 31.6194 74.5975 31.4934 75.5215H37.3104ZM38.8224 80.509C38.5914 80.789 38.3149 81.034 37.9929 81.244C37.6709 81.447 37.3244 81.615 36.9534 81.748C36.5894 81.881 36.2114 81.979 35.8194 82.042C35.4274 82.112 35.0389 82.147 34.6539 82.147C33.9189 82.147 33.2399 82.0245 32.6169 81.7795C32.0009 81.5275 31.4654 81.1635 31.0104 80.6875C30.5624 80.2045 30.2124 79.6095 29.9604 78.9025C29.7084 78.1955 29.5824 77.3835 29.5824 76.4665C29.5824 75.7245 29.6944 75.0315 29.9184 74.3875C30.1494 73.7435 30.4784 73.187 30.9054 72.718C31.3324 72.242 31.8539 71.871 32.4699 71.605C33.0859 71.332 33.7789 71.1955 34.5489 71.1955C35.1859 71.1955 35.7739 71.304 36.3129 71.521C36.8589 71.731 37.3279 72.039 37.7199 72.445C38.1189 72.844 38.4304 73.341 38.6544 73.936C38.8784 74.524 38.9904 75.196 38.9904 75.952C38.9904 76.246 38.9589 76.442 38.8959 76.54C38.8329 76.638 38.7139 76.687 38.5389 76.687H31.4304C31.4514 77.359 31.5424 77.9435 31.7034 78.4405C31.8714 78.9375 32.1024 79.354 32.3964 79.69C32.6904 80.019 33.0404 80.2675 33.4464 80.4355C33.8524 80.5965 34.3074 80.677 34.8114 80.677C35.2804 80.677 35.6829 80.6245 36.0189 80.5195C36.3619 80.4075 36.6559 80.2885 36.9009 80.1625C37.1459 80.0365 37.3489 79.921 37.5099 79.816C37.6779 79.704 37.8214 79.648 37.9404 79.648C38.0944 79.648 38.2134 79.7075 38.2974 79.8265L38.8224 80.509ZM48.6887 73.2535C48.6327 73.3305 48.5767 73.39 48.5207 73.432C48.4647 73.474 48.3877 73.495 48.2897 73.495C48.1847 73.495 48.0692 73.453 47.9432 73.369C47.8172 73.278 47.6597 73.18 47.4707 73.075C47.2887 72.97 47.0612 72.8755 46.7882 72.7915C46.5222 72.7005 46.1932 72.655 45.8012 72.655C45.2762 72.655 44.8142 72.7495 44.4152 72.9385C44.0162 73.1205 43.6802 73.3865 43.4072 73.7365C43.1412 74.0865 42.9382 74.51 42.7982 75.007C42.6652 75.504 42.5987 76.0605 42.5987 76.6765C42.5987 77.3205 42.6722 77.8945 42.8192 78.3985C42.9662 78.8955 43.1727 79.3155 43.4387 79.6585C43.7117 79.9945 44.0372 80.2535 44.4152 80.4355C44.8002 80.6105 45.2307 80.698 45.7067 80.698C46.1617 80.698 46.5362 80.6455 46.8302 80.5405C47.1242 80.4285 47.3657 80.306 47.5547 80.173C47.7507 80.04 47.9117 79.921 48.0377 79.816C48.1707 79.704 48.3002 79.648 48.4262 79.648C48.5802 79.648 48.6992 79.7075 48.7832 79.8265L49.3082 80.509C49.0772 80.796 48.8147 81.041 48.5207 81.244C48.2267 81.447 47.9082 81.6185 47.5652 81.7585C47.2292 81.8915 46.8757 81.9895 46.5047 82.0525C46.1337 82.1155 45.7557 82.147 45.3707 82.147C44.7057 82.147 44.0862 82.0245 43.5122 81.7795C42.9452 81.5345 42.4517 81.181 42.0317 80.719C41.6117 80.25 41.2827 79.676 41.0447 78.997C40.8067 78.318 40.6877 77.5445 40.6877 76.6765C40.6877 75.8855 40.7962 75.154 41.0132 74.482C41.2372 73.81 41.5592 73.2325 41.9792 72.7495C42.4062 72.2595 42.9277 71.878 43.5437 71.605C44.1667 71.332 44.8807 71.1955 45.6857 71.1955C46.4347 71.1955 47.0927 71.318 47.6597 71.563C48.2337 71.801 48.7412 72.1405 49.1822 72.5815L48.6887 73.2535ZM53.2885 71.3635V82H51.4195V71.3635H53.2885ZM53.6875 68.0245C53.6875 68.2065 53.649 68.378 53.572 68.539C53.502 68.693 53.404 68.833 53.278 68.959C53.159 69.078 53.0155 69.1725 52.8475 69.2425C52.6865 69.3125 52.515 69.3475 52.333 69.3475C52.151 69.3475 51.9795 69.3125 51.8185 69.2425C51.6645 69.1725 51.528 69.078 51.409 68.959C51.29 68.833 51.1955 68.693 51.1255 68.539C51.0555 68.378 51.0205 68.2065 51.0205 68.0245C51.0205 67.8425 51.0555 67.671 51.1255 67.51C51.1955 67.342 51.29 67.1985 51.409 67.0795C51.528 66.9535 51.6645 66.8555 51.8185 66.7855C51.9795 66.7155 52.151 66.6805 52.333 66.6805C52.515 66.6805 52.6865 66.7155 52.8475 66.7855C53.0155 66.8555 53.159 66.9535 53.278 67.0795C53.404 67.1985 53.502 67.342 53.572 67.51C53.649 67.671 53.6875 67.8425 53.6875 68.0245ZM62.1239 77.212C61.2629 77.24 60.5279 77.31 59.9189 77.422C59.3169 77.527 58.8234 77.667 58.4384 77.842C58.0604 78.017 57.7839 78.2235 57.6089 78.4615C57.4409 78.6995 57.3569 78.9655 57.3569 79.2595C57.3569 79.5395 57.4024 79.781 57.4934 79.984C57.5844 80.187 57.7069 80.355 57.8609 80.488C58.0219 80.614 58.2074 80.7085 58.4174 80.7715C58.6344 80.8275 58.8654 80.8555 59.1104 80.8555C59.4394 80.8555 59.7404 80.824 60.0134 80.761C60.2864 80.691 60.5419 80.593 60.7799 80.467C61.0249 80.341 61.2559 80.1905 61.4729 80.0155C61.6969 79.8405 61.9139 79.641 62.1239 79.417V77.212ZM65.1059 85.045C64.8959 85.206 64.6264 85.3355 64.2974 85.4335C63.9754 85.5385 63.6359 85.591 63.2789 85.591C62.6629 85.591 62.1764 85.451 61.8194 85.171C61.4694 84.898 61.2944 84.5305 61.2944 84.0685C61.2944 83.8655 61.3329 83.666 61.4099 83.47C61.4869 83.274 61.5919 83.085 61.7249 82.903C61.8649 82.728 62.0259 82.56 62.2079 82.399C62.3969 82.245 62.5999 82.1015 62.8169 81.9685C62.7329 81.9335 62.6629 81.888 62.6069 81.832C62.5509 81.769 62.5054 81.678 62.4704 81.559L62.2604 80.551C61.9804 80.81 61.7074 81.041 61.4414 81.244C61.1754 81.44 60.8954 81.608 60.6014 81.748C60.3074 81.881 59.9924 81.9825 59.6564 82.0525C59.3274 82.1295 58.9599 82.168 58.5539 82.168C58.1409 82.168 57.7524 82.112 57.3884 82C57.0244 81.881 56.7059 81.706 56.4329 81.475C56.1669 81.244 55.9534 80.9535 55.7924 80.6035C55.6384 80.2465 55.5614 79.8265 55.5614 79.3435C55.5614 78.9235 55.6769 78.521 55.9079 78.136C56.1389 77.744 56.5134 77.3975 57.0314 77.0965C57.5494 76.7955 58.2249 76.5505 59.0579 76.3615C59.8909 76.1655 60.9129 76.0535 62.1239 76.0255V75.196C62.1239 74.37 61.9454 73.747 61.5884 73.327C61.2314 72.9 60.7099 72.6865 60.0239 72.6865C59.5619 72.6865 59.1734 72.746 58.8584 72.865C58.5504 72.977 58.2809 73.1065 58.0499 73.2535C57.8259 73.3935 57.6299 73.523 57.4619 73.642C57.3009 73.754 57.1399 73.81 56.9789 73.81C56.8529 73.81 56.7444 73.7785 56.6534 73.7155C56.5624 73.6455 56.4854 73.5615 56.4224 73.4635L56.0864 72.865C56.6744 72.298 57.3079 71.8745 57.9869 71.5945C58.6659 71.3145 59.4184 71.1745 60.2444 71.1745C60.8394 71.1745 61.3679 71.2725 61.8299 71.4685C62.2919 71.6645 62.6804 71.9375 62.9954 72.2875C63.3104 72.6375 63.5484 73.061 63.7094 73.558C63.8704 74.055 63.9509 74.601 63.9509 75.196V82C63.8109 82.077 63.6674 82.168 63.5204 82.273C63.3734 82.385 63.2404 82.5075 63.1214 82.6405C63.0024 82.7805 62.9044 82.931 62.8274 83.092C62.7504 83.26 62.7119 83.435 62.7119 83.617C62.7119 83.883 62.7959 84.0895 62.9639 84.2365C63.1389 84.3905 63.3734 84.4675 63.6674 84.4675C63.8284 84.4675 63.9614 84.4535 64.0664 84.4255C64.1714 84.4045 64.2589 84.3765 64.3289 84.3415C64.3989 84.3135 64.4549 84.2855 64.4969 84.2575C64.5459 84.2295 64.5879 84.2155 64.6229 84.2155C64.6719 84.2155 64.7104 84.2295 64.7384 84.2575C64.7734 84.2855 64.7979 84.317 64.8119 84.352L65.1059 85.045ZM70.5044 76.8025C70.8824 76.8025 71.2149 76.75 71.5019 76.645C71.7889 76.54 72.0304 76.393 72.2264 76.204C72.4224 76.015 72.5694 75.791 72.6674 75.532C72.7654 75.266 72.8144 74.9755 72.8144 74.6605C72.8144 74.0095 72.6149 73.4915 72.2159 73.1065C71.8239 72.7215 71.2534 72.529 70.5044 72.529C69.7484 72.529 69.1709 72.7215 68.7719 73.1065C68.3799 73.4915 68.1839 74.0095 68.1839 74.6605C68.1839 74.9755 68.2329 75.266 68.3309 75.532C68.4359 75.791 68.5864 76.015 68.7824 76.204C68.9784 76.393 69.2199 76.54 69.5069 76.645C69.7939 76.75 70.1264 76.8025 70.5044 76.8025ZM73.8749 82.5775C73.8749 82.3185 73.8014 82.1085 73.6544 81.9475C73.5074 81.7865 73.3079 81.6605 73.0559 81.5695C72.8109 81.4785 72.5239 81.4155 72.1949 81.3805C71.8659 81.3385 71.5159 81.307 71.1449 81.286C70.7809 81.265 70.4099 81.244 70.0319 81.223C69.6539 81.202 69.2899 81.167 68.9399 81.118C68.5479 81.3 68.2259 81.531 67.9739 81.811C67.7289 82.084 67.6064 82.406 67.6064 82.777C67.6064 83.015 67.6659 83.2355 67.7849 83.4385C67.9109 83.6485 68.0999 83.827 68.3519 83.974C68.6039 84.128 68.9189 84.247 69.2969 84.331C69.6819 84.422 70.1334 84.4675 70.6514 84.4675C71.1554 84.4675 71.6069 84.422 72.0059 84.331C72.4049 84.24 72.7409 84.1105 73.0139 83.9425C73.2939 83.7745 73.5074 83.575 73.6544 83.344C73.8014 83.113 73.8749 82.8575 73.8749 82.5775ZM75.7754 71.7835V72.4765C75.7754 72.7075 75.6284 72.8545 75.3344 72.9175L74.1269 73.075C74.3649 73.537 74.4839 74.048 74.4839 74.608C74.4839 75.126 74.3824 75.5985 74.1794 76.0255C73.9834 76.4455 73.7104 76.806 73.3604 77.107C73.0104 77.408 72.5904 77.639 72.1004 77.8C71.6104 77.961 71.0784 78.0415 70.5044 78.0415C70.0074 78.0415 69.5384 77.982 69.0974 77.863C68.8734 78.003 68.7019 78.1535 68.5829 78.3145C68.4639 78.4685 68.4044 78.626 68.4044 78.787C68.4044 79.039 68.5059 79.2315 68.7089 79.3645C68.9189 79.4905 69.1919 79.5815 69.5279 79.6375C69.8639 79.6935 70.2454 79.7285 70.6724 79.7425C71.1064 79.7565 71.5474 79.781 71.9954 79.816C72.4504 79.844 72.8914 79.8965 73.3184 79.9735C73.7524 80.0505 74.1374 80.1765 74.4734 80.3515C74.8094 80.5265 75.0789 80.768 75.2819 81.076C75.4919 81.384 75.5969 81.783 75.5969 82.273C75.5969 82.728 75.4814 83.169 75.2504 83.596C75.0264 84.023 74.7009 84.401 74.2739 84.73C73.8469 85.066 73.3219 85.332 72.6989 85.528C72.0829 85.731 71.3864 85.8325 70.6094 85.8325C69.8324 85.8325 69.1534 85.7555 68.5724 85.6015C67.9914 85.4475 67.5084 85.241 67.1234 84.982C66.7384 84.723 66.4479 84.422 66.2519 84.079C66.0629 83.743 65.9684 83.3895 65.9684 83.0185C65.9684 82.4935 66.1329 82.049 66.4619 81.685C66.7909 81.321 67.2424 81.0305 67.8164 80.8135C67.5014 80.6735 67.2494 80.488 67.0604 80.257C66.8784 80.019 66.7874 79.7005 66.7874 79.3015C66.7874 79.1475 66.8154 78.99 66.8714 78.829C66.9274 78.661 67.0114 78.4965 67.1234 78.3355C67.2424 78.1675 67.3859 78.01 67.5539 77.863C67.7219 77.716 67.9179 77.5865 68.1419 77.4745C67.6169 77.1805 67.2074 76.792 66.9134 76.309C66.6194 75.819 66.4724 75.252 66.4724 74.608C66.4724 74.09 66.5704 73.621 66.7664 73.201C66.9694 72.774 67.2494 72.4135 67.6064 72.1195C67.9634 71.8185 68.3869 71.5875 68.8769 71.4265C69.3739 71.2655 69.9164 71.185 70.5044 71.185C70.9664 71.185 71.3969 71.2375 71.7959 71.3425C72.1949 71.4405 72.5589 71.5875 72.8879 71.7835H75.7754ZM79.472 72.907C79.703 72.648 79.948 72.4135 80.207 72.2035C80.466 71.9935 80.739 71.815 81.026 71.668C81.32 71.514 81.628 71.3985 81.95 71.3215C82.279 71.2375 82.6325 71.1955 83.0105 71.1955C83.5915 71.1955 84.1025 71.2935 84.5435 71.4895C84.9915 71.6785 85.3625 71.9515 85.6565 72.3085C85.9575 72.6585 86.185 73.082 86.339 73.579C86.493 74.076 86.57 74.6255 86.57 75.2275V82H84.6905V75.2275C84.6905 74.4225 84.505 73.7995 84.134 73.3585C83.77 72.9105 83.2135 72.6865 82.4645 72.6865C81.9115 72.6865 81.3935 72.8195 80.9105 73.0855C80.4345 73.3515 79.9935 73.712 79.5875 74.167V82H77.708V71.3635H78.8315C79.0975 71.3635 79.262 71.493 79.325 71.752L79.472 72.907ZM91.392 71.3635V82H89.523V71.3635H91.392ZM91.791 68.0245C91.791 68.2065 91.7525 68.378 91.6755 68.539C91.6055 68.693 91.5075 68.833 91.3815 68.959C91.2625 69.078 91.119 69.1725 90.951 69.2425C90.79 69.3125 90.6185 69.3475 90.4365 69.3475C90.2545 69.3475 90.083 69.3125 89.922 69.2425C89.768 69.1725 89.6315 69.078 89.5125 68.959C89.3935 68.833 89.299 68.693 89.229 68.539C89.159 68.378 89.124 68.2065 89.124 68.0245C89.124 67.8425 89.159 67.671 89.229 67.51C89.299 67.342 89.3935 67.1985 89.5125 67.0795C89.6315 66.9535 89.768 66.8555 89.922 66.7855C90.083 66.7155 90.2545 66.6805 90.4365 66.6805C90.6185 66.6805 90.79 66.7155 90.951 66.7855C91.119 66.8555 91.2625 66.9535 91.3815 67.0795C91.5075 67.1985 91.6055 67.342 91.6755 67.51C91.7525 67.671 91.791 67.8425 91.791 68.0245ZM96.4369 71.3635V82.7875C96.4369 83.2145 96.3809 83.61 96.2689 83.974C96.1569 84.345 95.9784 84.667 95.7334 84.94C95.4884 85.213 95.1734 85.4265 94.7884 85.5805C94.4104 85.7415 93.9554 85.822 93.4234 85.822C93.1994 85.822 92.9929 85.8045 92.8039 85.7695C92.6149 85.7345 92.4259 85.682 92.2369 85.612L92.3104 84.604C92.3244 84.541 92.3489 84.492 92.3839 84.457C92.4119 84.429 92.4539 84.4115 92.5099 84.4045C92.5659 84.3975 92.6394 84.394 92.7304 84.394C92.8144 84.401 92.9229 84.4045 93.0559 84.4045C93.6019 84.4045 93.9904 84.275 94.2214 84.016C94.4524 83.764 94.5679 83.3545 94.5679 82.7875V71.3635H96.4369ZM96.8254 68.0245C96.8254 68.2065 96.7869 68.378 96.7099 68.539C96.6399 68.693 96.5419 68.833 96.4159 68.959C96.2969 69.078 96.1569 69.1725 95.9959 69.2425C95.8349 69.3125 95.6634 69.3475 95.4814 69.3475C95.2994 69.3475 95.1279 69.3125 94.9669 69.2425C94.8129 69.1725 94.6764 69.078 94.5574 68.959C94.4384 68.833 94.3439 68.693 94.2739 68.539C94.2039 68.378 94.1689 68.2065 94.1689 68.0245C94.1689 67.8425 94.2039 67.671 94.2739 67.51C94.3439 67.342 94.4384 67.1985 94.5574 67.0795C94.6764 66.9535 94.8129 66.8555 94.9669 66.7855C95.1279 66.7155 95.2994 66.6805 95.4814 66.6805C95.6634 66.6805 95.8349 66.7155 95.9959 66.7855C96.1569 66.8555 96.2969 66.9535 96.4159 67.0795C96.5419 67.1985 96.6399 67.342 96.7099 67.51C96.7869 67.671 96.8254 67.8425 96.8254 68.0245Z" fill="#454545"/>
<path d="M65 3L96 35H65L65 3Z" fill="#454545"/>
</svg>
