<svg width="50" height="19" viewBox="0 0 50 19" fill="none" xmlns="http://www.w3.org/2000/svg">
<path d="M12.1 11.448L9.988 5.676C9.884 5.42 9.776 5.116 9.664 4.764C9.552 4.412 9.44 4.032 9.328 3.624C9.224 4.032 9.116 4.416 9.004 4.776C8.892 5.128 8.784 5.436 8.68 5.7L6.58 11.448H12.1ZM17.8 18H15.304C15.024 18 14.796 17.932 14.62 17.796C14.444 17.652 14.312 17.476 14.224 17.268L12.928 13.728H5.74L4.444 17.268C4.38 17.452 4.256 17.62 4.072 17.772C3.888 17.924 3.66 18 3.388 18H0.868L7.696 0.647999H10.984L17.8 18ZM26.0881 15.48C26.6881 15.48 27.1921 15.408 27.6001 15.264C28.0081 15.12 28.3321 14.928 28.5721 14.688C28.8201 14.448 28.9961 14.168 29.1001 13.848C29.2121 13.528 29.2681 13.188 29.2681 12.828C29.2681 12.452 29.2081 12.116 29.0881 11.82C28.9681 11.516 28.7801 11.26 28.5241 11.052C28.2681 10.836 27.9361 10.672 27.5281 10.56C27.1281 10.448 26.6441 10.392 26.0761 10.392H22.8241V15.48H26.0881ZM22.8241 3.144V8.16H25.3921C26.4961 8.16 27.3281 7.96 27.8881 7.56C28.4561 7.16 28.7401 6.524 28.7401 5.652C28.7401 4.748 28.4841 4.104 27.9721 3.72C27.4601 3.336 26.6601 3.144 25.5721 3.144H22.8241ZM25.5721 0.647999C26.7081 0.647999 27.6801 0.755999 28.4881 0.972C29.2961 1.188 29.9561 1.496 30.4681 1.896C30.9881 2.296 31.3681 2.78 31.6081 3.348C31.8481 3.916 31.9681 4.556 31.9681 5.268C31.9681 5.676 31.9081 6.068 31.7881 6.444C31.6681 6.812 31.4801 7.16 31.2241 7.488C30.9761 7.808 30.6561 8.1 30.2641 8.364C29.8801 8.628 29.4201 8.852 28.8841 9.036C31.2681 9.572 32.4601 10.86 32.4601 12.9C32.4601 13.636 32.3201 14.316 32.0401 14.94C31.7601 15.564 31.3521 16.104 30.8161 16.56C30.2801 17.008 29.6201 17.36 28.8361 17.616C28.0521 17.872 27.1561 18 26.1481 18H19.5961V0.647999H25.5721ZM47.3089 13.908C47.4849 13.908 47.6409 13.976 47.7769 14.112L49.0489 15.492C48.3449 16.364 47.4769 17.032 46.4449 17.496C45.4209 17.96 44.1889 18.192 42.7489 18.192C41.4609 18.192 40.3009 17.972 39.2689 17.532C38.2449 17.092 37.3689 16.48 36.6409 15.696C35.9129 14.912 35.3529 13.976 34.9609 12.888C34.5769 11.8 34.3849 10.612 34.3849 9.324C34.3849 8.02 34.5929 6.828 35.0089 5.748C35.4249 4.66 36.0089 3.724 36.7609 2.94C37.5209 2.156 38.4249 1.548 39.4729 1.116C40.5209 0.676 41.6809 0.456 42.9529 0.456C44.2169 0.456 45.3369 0.664 46.3129 1.08C47.2969 1.496 48.1329 2.04 48.8209 2.712L47.7409 4.212C47.6769 4.308 47.5929 4.392 47.4889 4.464C47.3929 4.536 47.2569 4.572 47.0809 4.572C46.9609 4.572 46.8369 4.54 46.7089 4.476C46.5809 4.404 46.4409 4.32 46.2889 4.224C46.1369 4.12 45.9609 4.008 45.7609 3.888C45.5609 3.768 45.3289 3.66 45.0649 3.564C44.8009 3.46 44.4929 3.376 44.1409 3.312C43.7969 3.24 43.3969 3.204 42.9409 3.204C42.1649 3.204 41.4529 3.344 40.8049 3.624C40.1649 3.896 39.6129 4.296 39.1489 4.824C38.6849 5.344 38.3249 5.984 38.0689 6.744C37.8129 7.496 37.6849 8.356 37.6849 9.324C37.6849 10.3 37.8209 11.168 38.0929 11.928C38.3729 12.688 38.7489 13.328 39.2209 13.848C39.6929 14.368 40.2489 14.768 40.8889 15.048C41.5289 15.32 42.2169 15.456 42.9529 15.456C43.3929 15.456 43.7889 15.432 44.1409 15.384C44.5009 15.336 44.8289 15.26 45.1249 15.156C45.4289 15.052 45.7129 14.92 45.9769 14.76C46.2489 14.592 46.5169 14.388 46.7809 14.148C46.8609 14.076 46.9449 14.02 47.0329 13.98C47.1209 13.932 47.2129 13.908 47.3089 13.908Z" fill="#313131"/>
<path d="M3 9H43" stroke="#313131" stroke-width="3"/>
</svg>
