<svg width="15" height="30" viewBox="0 0 15 30" fill="none" xmlns="http://www.w3.org/2000/svg">
<path d="M10.013 13.532C10.013 13.6533 9.992 13.7723 9.95 13.889C9.908 14.0057 9.852 14.1013 9.782 14.176L6.373 18.67H9.908V20H4.364V19.279C4.364 19.1997 4.38267 19.1063 4.42 18.999C4.45733 18.887 4.51333 18.782 4.588 18.684L8.032 14.141H4.567V12.818H10.013V13.532ZM14.8635 12.776V13.763C14.8635 13.9543 14.7841 14.0803 14.6255 14.141L13.6175 14.568V20H11.8885V15.17L10.7125 15.653V14.631C10.7125 14.4723 10.7825 14.3603 10.9225 14.295L11.8885 13.882V9.598H13.6175V13.273L14.8635 12.776Z" fill="black"/>
<line x1="1" y1="30" x2="1" stroke="#212121" stroke-width="2"/>
</svg>
