<svg width="22" height="23" viewBox="0 0 22 23" fill="none" xmlns="http://www.w3.org/2000/svg">
<path fill-rule="evenodd" clip-rule="evenodd" d="M1 0H10C10.5523 0 11 0.447715 11 1C11 1.55228 10.5523 2 10 2H2L2 21H10C10.5523 21 11 21.4477 11 22C11 22.5523 10.5523 23 10 23H1C0.447716 23 0 22.5523 0 22V1C0 0.447715 0.447715 0 1 0ZM21.5303 11.4697L16.7574 6.6967C16.4645 6.40381 15.9896 6.40381 15.6967 6.6967C15.4038 6.98959 15.4038 7.46447 15.6967 7.75736L19.1893 11.25H8V12.75H19.1893L15.6967 16.2426C15.4038 16.5355 15.4038 17.0104 15.6967 17.3033C15.9896 17.5962 16.4645 17.5962 16.7574 17.3033L21.5303 12.5303C21.8232 12.2374 21.8232 11.7626 21.5303 11.4697Z" fill="#212121"/>
</svg>
