<svg width="18" height="23" viewBox="0 0 18 23" fill="none" xmlns="http://www.w3.org/2000/svg">
<path fill-rule="evenodd" clip-rule="evenodd" d="M1 0H10C10.5523 0 11 0.447715 11 1C11 1.55228 10.5523 2 10 2H2L2 21H10C10.5523 21 11 21.4477 11 22C11 22.5523 10.5523 23 10 23H1C0.447716 23 0 22.5523 0 22V1C0 0.447715 0.447715 0 1 0ZM17.5303 11.4697L12.7574 6.6967C12.4645 6.40381 11.9896 6.40381 11.6967 6.6967C11.4038 6.98959 11.4038 7.46447 11.6967 7.75736L15.1893 11.25H4V12.75H15.1893L11.6967 16.2426C11.4038 16.5355 11.4038 17.0104 11.6967 17.3033C11.9896 17.5962 12.4645 17.5962 12.7574 17.3033L17.5303 12.5303C17.8232 12.2374 17.8232 11.7626 17.5303 11.4697Z" fill="#212121"/>
</svg>
