<svg width="20" height="20" viewBox="0 0 20 20" fill="none" xmlns="http://www.w3.org/2000/svg">
<path fill-rule="evenodd" clip-rule="evenodd" d="M10 18C12.3064 18 14.3848 17.024 15.8448 15.4625C15.6365 15.067 15.2012 14.5911 14.4361 14.1331C13.3344 13.4735 11.7639 13 10 13C8.23614 13 6.66564 13.4735 5.56391 14.1331C4.79885 14.5911 4.36347 15.067 4.15517 15.4625C5.61516 17.024 7.6936 18 10 18ZM10 12C12.959 12 15.4892 13.2109 16.5135 14.6458C17.4494 13.3362 18 11.7324 18 10C18 5.58172 14.4183 2 10 2C5.58172 2 2 5.58172 2 10C2 11.7324 2.55065 13.3362 3.48646 14.6458C4.51079 13.2109 7.04098 12 10 12ZM10 20C15.5228 20 20 15.5228 20 10C20 4.47715 15.5228 0 10 0C4.47715 0 0 4.47715 0 10C0 15.5228 4.47715 20 10 20ZM13 7C13 8.65685 11.6569 10 10 10C8.34315 10 7 8.65685 7 7C7 5.34315 8.34315 4 10 4C11.6569 4 13 5.34315 13 7ZM14 7C14 9.20914 12.2091 11 10 11C7.79086 11 6 9.20914 6 7C6 4.79086 7.79086 3 10 3C12.2091 3 14 4.79086 14 7Z" fill="#212121"/>
</svg>
