<svg width="39" height="32" viewBox="0 0 39 32" fill="none" xmlns="http://www.w3.org/2000/svg">
<path d="M5.856 18.32C6.056 18.32 6.214 18.376 6.33 18.488C6.446 18.596 6.504 18.74 6.504 18.92V20H0.36V19.4C0.36 19.284 0.384 19.16 0.432 19.028C0.48 18.896 0.564 18.776 0.684 18.668L3.204 16.13C3.42 15.914 3.608 15.708 3.768 15.512C3.928 15.316 4.06 15.124 4.164 14.936C4.268 14.744 4.346 14.554 4.398 14.366C4.45 14.174 4.476 13.972 4.476 13.76C4.476 13.412 4.392 13.146 4.224 12.962C4.06 12.774 3.808 12.68 3.468 12.68C3.192 12.68 2.958 12.754 2.766 12.902C2.578 13.046 2.448 13.226 2.376 13.442C2.292 13.662 2.182 13.808 2.046 13.88C1.91 13.952 1.716 13.968 1.464 13.928L0.48 13.754C0.544 13.318 0.666 12.938 0.846 12.614C1.03 12.29 1.256 12.02 1.524 11.804C1.796 11.588 2.106 11.428 2.454 11.324C2.802 11.216 3.176 11.162 3.576 11.162C4.008 11.162 4.396 11.226 4.74 11.354C5.088 11.478 5.384 11.652 5.628 11.876C5.872 12.1 6.058 12.368 6.186 12.68C6.318 12.988 6.384 13.328 6.384 13.7C6.384 14.02 6.338 14.316 6.246 14.588C6.158 14.86 6.036 15.12 5.88 15.368C5.724 15.612 5.542 15.85 5.334 16.082C5.13 16.31 4.912 16.542 4.68 16.778L2.97 18.53C3.19 18.462 3.408 18.41 3.624 18.374C3.84 18.338 4.04 18.32 4.224 18.32H5.856Z" fill="#313131"/>
<path d="M0.528 24.754C0.592 24.318 0.714 23.938 0.894 23.614C1.078 23.29 1.304 23.02 1.572 22.804C1.844 22.588 2.154 22.428 2.502 22.324C2.85 22.216 3.224 22.162 3.624 22.162C4.056 22.162 4.44 22.224 4.776 22.348C5.112 22.468 5.396 22.632 5.628 22.84C5.86 23.048 6.036 23.29 6.156 23.566C6.276 23.838 6.336 24.126 6.336 24.43C6.336 24.706 6.308 24.95 6.252 25.162C6.196 25.37 6.112 25.552 6 25.708C5.892 25.86 5.756 25.99 5.592 26.098C5.432 26.202 5.248 26.29 5.04 26.362C6.008 26.702 6.492 27.362 6.492 28.342C6.492 28.806 6.408 29.21 6.24 29.554C6.072 29.898 5.846 30.184 5.562 30.412C5.282 30.64 4.956 30.812 4.584 30.928C4.212 31.04 3.824 31.096 3.42 31.096C3.004 31.096 2.634 31.052 2.31 30.964C1.986 30.872 1.698 30.732 1.446 30.544C1.194 30.352 0.972 30.108 0.78 29.812C0.592 29.516 0.428 29.164 0.288 28.756L1.116 28.42C1.332 28.336 1.532 28.314 1.716 28.354C1.9 28.394 2.032 28.486 2.112 28.63C2.292 28.962 2.482 29.204 2.682 29.356C2.886 29.504 3.124 29.578 3.396 29.578C3.604 29.578 3.784 29.544 3.936 29.476C4.092 29.404 4.22 29.314 4.32 29.206C4.424 29.094 4.502 28.968 4.554 28.828C4.606 28.688 4.632 28.546 4.632 28.402C4.632 28.214 4.618 28.046 4.59 27.898C4.566 27.746 4.494 27.616 4.374 27.508C4.254 27.4 4.072 27.318 3.828 27.262C3.588 27.202 3.252 27.172 2.82 27.172V25.888C3.184 25.888 3.478 25.86 3.702 25.804C3.926 25.748 4.098 25.672 4.218 25.576C4.342 25.476 4.424 25.356 4.464 25.216C4.504 25.076 4.524 24.922 4.524 24.754C4.524 24.41 4.44 24.146 4.272 23.962C4.108 23.774 3.856 23.68 3.516 23.68C3.24 23.68 3.006 23.754 2.814 23.902C2.626 24.046 2.496 24.226 2.424 24.442C2.34 24.662 2.23 24.808 2.094 24.88C1.958 24.952 1.764 24.968 1.512 24.928L0.528 24.754Z" fill="#313131"/>
<path d="M7 3H39" stroke="#313131" stroke-width="3"/>
<path d="M7 15H39" stroke="#313131" stroke-width="3"/>
<path d="M7 28H39" stroke="#313131" stroke-width="3"/>
<path d="M6.306 7.656V9H1.326V7.656H3.006V3.246C3.006 3.134 3.008 3.022 3.012 2.91C3.016 2.794 3.022 2.678 3.03 2.562L2.034 3.39C1.946 3.458 1.858 3.5 1.77 3.516C1.686 3.528 1.606 3.528 1.53 3.516C1.454 3.5 1.386 3.474 1.326 3.438C1.266 3.398 1.222 3.358 1.194 3.318L0.606 2.538L3.33 0.252H4.866V7.656H6.306Z" fill="#313131"/>
</svg>
