<svg width="15" height="15" viewBox="0 0 15 15" fill="none" xmlns="http://www.w3.org/2000/svg">
<mask id="path-1-inside-1" fill="white">
<path fill-rule="evenodd" clip-rule="evenodd" d="M8.68178 0H6.30933C6.22378 0.60422 6.14693 1.18102 6.07881 1.73598C5.47908 1.8861 4.91555 2.12752 4.40384 2.44463C3.96652 2.09629 3.51051 1.73675 3.03235 1.36105L1.35477 3.03863C1.72614 3.53251 2.08393 4.0002 2.43228 4.44578C2.12623 4.95656 1.89487 5.51722 1.75328 6.11268C1.19241 6.17613 0.610038 6.24502 0 6.31822V8.69067C0.615624 8.77784 1.20278 8.85597 1.76738 8.92504C1.91425 9.51607 2.14977 10.0721 2.459 10.5781C2.10618 11.0209 1.74192 11.4829 1.36105 11.9677L3.03863 13.6452C3.53434 13.2725 4.00366 12.9134 4.45072 12.5639C4.94816 12.8658 5.49352 13.0966 6.07273 13.2422C6.14228 13.8041 6.22114 14.388 6.30933 15H8.68178C8.78341 14.3903 8.87146 13.8084 8.94691 13.2491C9.52487 13.1068 10.0695 12.8797 10.5668 12.5818C11.0086 12.9261 11.4721 13.2792 11.9614 13.6452L13.6389 11.9677C13.2839 11.4706 12.9388 11.0022 12.6005 10.5581C12.9042 10.0567 13.1357 9.5067 13.2806 8.92251C13.8306 8.85413 14.4019 8.77686 15 8.69067V6.31822C14.4017 6.2185 13.8303 6.13186 13.2807 6.05735C13.1351 5.47039 12.9021 4.91794 12.5963 4.41462C12.9359 3.97846 13.2843 3.5211 13.6452 3.03863L11.9677 1.36105C11.4725 1.71476 11.0057 2.05862 10.5631 2.39566C10.0485 2.08795 9.4833 1.85601 8.88302 1.71525C8.82076 1.16609 8.75333 0.596261 8.68178 0ZM7.53382 10.8673C9.39356 10.8673 10.9012 9.35973 10.9012 7.5C10.9012 5.64026 9.39356 4.13265 7.53382 4.13265C5.67409 4.13265 4.16648 5.64026 4.16648 7.5C4.16648 9.35973 5.67409 10.8673 7.53382 10.8673Z"/>
</mask>
<path d="M6.30933 0V-3H3.70421L3.33897 -0.420606L6.30933 0ZM8.68178 0L11.6604 -0.357436L11.3433 -3H8.68178V0ZM6.07881 1.73598L6.80727 4.64619L8.8055 4.14601L9.05646 2.10147L6.07881 1.73598ZM4.40384 2.44463L2.5347 4.79119L4.18771 6.10788L5.98408 4.99469L4.40384 2.44463ZM3.03235 1.36105L4.88581 -0.997903L2.79301 -2.64225L0.911026 -0.760269L3.03235 1.36105ZM1.35477 3.03863L-0.766549 0.917306L-2.60865 2.75941L-1.04301 4.84158L1.35477 3.03863ZM2.43228 4.44578L5.00569 5.9877L6.06438 4.2208L4.79574 2.59806L2.43228 4.44578ZM1.75328 6.11268L2.09055 9.09366L4.18444 8.85675L4.67191 6.80666L1.75328 6.11268ZM0 6.31822L-0.357435 3.33959L-3 3.6567V6.31822H0ZM0 8.69067H-3V11.2958L-0.42061 11.661L0 8.69067ZM1.76738 8.92504L4.67882 8.20152L4.18091 6.19793L2.13165 5.94724L1.76738 8.92504ZM2.459 10.5781L4.80529 12.4476L6.1137 10.8055L5.0189 9.01385L2.459 10.5781ZM1.36105 11.9677L-0.997903 10.1142L-2.64225 12.207L-0.760267 14.089L1.36105 11.9677ZM3.03863 13.6452L0.917307 15.7665L2.75941 17.6087L4.84158 16.043L3.03863 13.6452ZM4.45072 12.5639L6.00725 9.99926L4.2355 8.92392L2.60281 10.2006L4.45072 12.5639ZM6.07273 13.2422L9.05 12.8737L8.7975 10.834L6.80429 10.3328L6.07273 13.2422ZM6.30933 15L3.34001 15.4279L3.71067 18H6.30933V15ZM8.68178 15V18H11.2232L11.641 15.4932L8.68178 15ZM8.94691 13.2491L8.22948 10.3362L6.24683 10.8245L5.97384 12.848L8.94691 13.2491ZM10.5668 12.5818L12.4108 10.2155L10.7892 8.95177L9.02538 10.0081L10.5668 12.5818ZM11.9614 13.6452L10.1643 16.0474L12.2452 17.6041L14.0827 15.7665L11.9614 13.6452ZM13.6389 11.9677L15.7603 14.089L17.5573 12.2919L16.0801 10.2239L13.6389 11.9677ZM12.6005 10.5581L10.0345 9.00396L8.9764 10.751L10.2139 12.3758L12.6005 10.5581ZM13.2806 8.92251L12.9105 5.94543L10.8651 6.19972L10.3689 8.20028L13.2806 8.92251ZM15 8.69067L15.4279 11.66L18 11.2893V8.69067H15ZM15 6.31822H18V3.77684L15.4932 3.35904L15 6.31822ZM13.2807 6.05735L10.3689 6.77952L10.8592 8.75657L12.8777 9.03017L13.2807 6.05735ZM12.5963 4.41462L10.2293 2.57137L8.95801 4.20391L10.0324 5.97231L12.5963 4.41462ZM13.6452 3.03863L16.0474 4.83568L17.6041 2.75484L15.7665 0.917307L13.6452 3.03863ZM11.9677 1.36105L14.089 -0.760267L12.2919 -2.55729L10.2239 -1.08015L11.9677 1.36105ZM10.5631 2.39566L9.02354 4.97049L10.7656 6.01213L12.3805 4.78249L10.5631 2.39566ZM8.88302 1.71525L5.90212 2.05322L6.14025 4.15347L8.19813 4.63602L8.88302 1.71525ZM6.30933 3H8.68178V-3H6.30933V3ZM9.05646 2.10147C9.12198 1.56769 9.19632 1.00948 9.2797 0.420606L3.33897 -0.420606C3.25123 0.198961 3.17187 0.794356 3.10115 1.37049L9.05646 2.10147ZM5.98408 4.99469C6.23688 4.83803 6.51369 4.71968 6.80727 4.64619L5.35035 -1.17423C4.44447 -0.947481 3.59421 -0.582982 2.82359 -0.105437L5.98408 4.99469ZM1.17888 3.72001C1.65499 4.0941 2.10501 4.44892 2.5347 4.79119L6.27297 0.0980661C5.82802 -0.256351 5.36603 -0.620591 4.88581 -0.997903L1.17888 3.72001ZM3.47609 5.15995L5.15367 3.48237L0.911026 -0.760269L-0.766549 0.917306L3.47609 5.15995ZM4.79574 2.59806C4.46074 2.16956 4.11449 1.71701 3.75255 1.23567L-1.04301 4.84158C-0.662216 5.34801 -0.292876 5.83084 0.068819 6.29349L4.79574 2.59806ZM4.67191 6.80666C4.74123 6.5151 4.85462 6.23983 5.00569 5.9877L-0.141137 2.90385C-0.602165 3.67329 -0.951503 4.51935 -1.16535 5.41869L4.67191 6.80666ZM0.357435 9.29685C0.96487 9.22396 1.53955 9.156 2.09055 9.09366L1.41601 3.13169C0.845279 3.19627 0.255207 3.26607 -0.357435 3.33959L0.357435 9.29685ZM3 8.69067V6.31822H-3V8.69067H3ZM2.13165 5.94724C1.58875 5.88083 1.0206 5.80526 0.42061 5.7203L-0.42061 11.661C0.210648 11.7504 0.816819 11.8311 1.4031 11.9028L2.13165 5.94724ZM5.0189 9.01385C4.86617 8.76393 4.75073 8.49086 4.67882 8.20152L-1.14407 9.64856C-0.922221 10.5413 -0.566634 11.3802 -0.100893 12.1424L5.0189 9.01385ZM3.72001 13.8211C4.09925 13.3384 4.45869 12.8826 4.80529 12.4476L0.112709 8.70865C-0.246335 9.15928 -0.615408 9.62738 -0.997903 10.1142L3.72001 13.8211ZM5.15995 11.5239L3.48237 9.84633L-0.760267 14.089L0.917307 15.7665L5.15995 11.5239ZM2.60281 10.2006C2.17291 10.5367 1.7188 10.8842 1.23567 11.2474L4.84158 16.043C5.34988 15.6608 5.83441 15.2901 6.29863 14.9272L2.60281 10.2006ZM6.80429 10.3328C6.52073 10.2615 6.25289 10.1483 6.00725 9.99926L2.89418 15.1285C3.64342 15.5832 4.46631 15.9317 5.34117 16.1517L6.80429 10.3328ZM9.27866 14.5721C9.19286 13.9767 9.11674 13.4128 9.05 12.8737L3.09545 13.6108C3.16782 14.1953 3.24942 14.7993 3.34001 15.4279L9.27866 14.5721ZM8.68178 12H6.30933V18H8.68178V12ZM5.97384 12.848C5.90288 13.3741 5.81955 13.9251 5.7226 14.5068L11.641 15.4932C11.7473 14.8554 11.84 14.2428 11.92 13.6502L5.97384 12.848ZM9.02538 10.0081C8.77987 10.1552 8.51245 10.2665 8.22948 10.3362L9.66435 16.1621C10.5373 15.9471 11.3591 15.6042 12.1083 15.1555L9.02538 10.0081ZM13.7584 11.243C13.2824 10.8869 12.8348 10.5458 12.4108 10.2155L8.72283 14.9482C9.18236 15.3063 9.66172 15.6714 10.1643 16.0474L13.7584 11.243ZM11.5176 9.84633L9.84005 11.5239L14.0827 15.7665L15.7603 14.089L11.5176 9.84633ZM10.2139 12.3758C10.5321 12.7936 10.859 13.2372 11.1977 13.7114L16.0801 10.2239C15.7088 9.70403 15.3455 9.21084 14.9872 8.74038L10.2139 12.3758ZM10.3689 8.20028C10.2979 8.48628 10.1844 8.75638 10.0345 9.00396L15.1666 12.1122C15.624 11.357 15.9735 10.5271 16.1924 9.64474L10.3689 8.20028ZM14.5721 5.72134C13.9903 5.80519 13.4385 5.87979 12.9105 5.94543L13.6507 11.8996C14.2228 11.8285 14.8136 11.7485 15.4279 11.66L14.5721 5.72134ZM12 6.31822V8.69067H18V6.31822H12ZM12.8777 9.03017C13.3948 9.10026 13.936 9.18227 14.5068 9.2774L15.4932 3.35904C14.8674 3.25473 14.2658 3.16345 13.6836 3.08454L12.8777 9.03017ZM10.0324 5.97231C10.1834 6.22085 10.2976 6.49216 10.3689 6.77952L16.1924 5.33519C15.9726 4.44863 15.6208 3.61503 15.1602 2.85692L10.0324 5.97231ZM11.243 1.24157C10.8919 1.71094 10.5554 2.1527 10.2293 2.57137L14.9632 6.25786C15.3165 5.80422 15.6767 5.33126 16.0474 4.83568L11.243 1.24157ZM9.84633 3.48237L11.5239 5.15995L15.7665 0.917307L14.089 -0.760267L9.84633 3.48237ZM12.3805 4.78249C12.7969 4.46543 13.239 4.13969 13.7114 3.80225L10.2239 -1.08015C9.70597 -0.710169 9.21453 -0.348184 8.74567 0.00882959L12.3805 4.78249ZM8.19813 4.63602C8.49206 4.70495 8.76952 4.81861 9.02354 4.97049L12.1027 -0.179173C11.3274 -0.642717 10.4745 -0.992933 9.56791 -1.20553L8.19813 4.63602ZM5.70315 0.357436C5.7744 0.951127 5.84093 1.51356 5.90212 2.05322L11.8639 1.37727C11.8006 0.818632 11.7323 0.241395 11.6604 -0.357436L5.70315 0.357436ZM7.90117 7.5C7.90117 7.70288 7.7367 7.86734 7.53382 7.86734V13.8673C11.0504 13.8673 13.9012 11.0166 13.9012 7.5H7.90117ZM7.53382 7.13265C7.7367 7.13265 7.90117 7.29712 7.90117 7.5H13.9012C13.9012 3.98341 11.0504 1.13265 7.53382 1.13265V7.13265ZM7.16648 7.5C7.16648 7.29712 7.33094 7.13265 7.53382 7.13265V1.13265C4.01724 1.13265 1.16648 3.98341 1.16648 7.5H7.16648ZM7.53382 7.86734C7.33094 7.86734 7.16648 7.70288 7.16648 7.5H1.16648C1.16648 11.0166 4.01724 13.8673 7.53382 13.8673V7.86734Z" fill="#212121" mask="url(#path-1-inside-1)"/>
</svg>
