<svg width="60" height="49" viewBox="0 0 60 49" fill="none" xmlns="http://www.w3.org/2000/svg">
<path d="M18.9438 48.7993C41.4358 48.7993 53.735 30.1038 53.735 13.8923C53.735 13.3613 53.7242 12.8326 53.7005 12.3064C56.0881 10.5746 58.1634 8.41347 59.8 5.95334C57.6091 6.93046 55.2513 7.58826 52.7779 7.88486C55.3025 6.36596 57.2408 3.96323 58.155 1.09885C55.7925 2.50413 53.176 3.52551 50.3903 4.07685C48.1588 1.69207 44.9821 0.200684 41.4645 0.200684C34.7117 0.200684 29.2356 5.69502 29.2356 12.4679C29.2356 13.4306 29.3429 14.3671 29.5527 15.2652C19.3896 14.7522 10.378 9.87019 4.34762 2.44674C3.29745 4.25984 2.69192 6.36596 2.69192 8.6132C2.69192 12.8697 4.85064 16.6275 8.13344 18.8257C6.12729 18.7635 4.24272 18.211 2.59536 17.2912C2.59356 17.3427 2.59356 17.3929 2.59356 17.4479C2.59356 23.3895 6.80851 28.3505 12.4038 29.4747C11.3763 29.7557 10.2951 29.9064 9.17943 29.9064C8.3927 29.9064 7.62623 29.8288 6.88122 29.6852C8.43799 34.56 12.9521 38.1073 18.3043 38.2065C14.1191 41.4979 8.84685 43.4581 3.11685 43.4581C2.13106 43.4581 1.15718 43.4018 0.199997 43.2883C5.61173 46.7686 12.0379 48.7993 18.9444 48.7993" fill="white"/>
</svg>
